<svg width="16" height="17" viewBox="0 0 16 17" fill="none" xmlns="http://www.w3.org/2000/svg">
<path d="M10.06 2.71999C10.1867 2.71999 10.3133 2.76665 10.4133 2.86665C10.5063 2.96074 10.5585 3.0877 10.5585 3.21999C10.5585 3.35227 10.5063 3.47923 10.4133 3.57332L6.06667 7.91999C5.74667 8.23999 5.74667 8.75999 6.06667 9.07999L10.4133 13.4267C10.5063 13.5207 10.5585 13.6477 10.5585 13.78C10.5585 13.9123 10.5063 14.0392 10.4133 14.1333C10.22 14.3267 9.9 14.3267 9.70667 14.1333L5.36 9.78665C5.02 9.44665 4.82667 8.98665 4.82667 8.49999C4.82667 8.01332 5.01334 7.55332 5.36 7.21332L9.70667 2.86665C9.80667 2.77332 9.93334 2.71999 10.06 2.71999Z" fill="#52B5B4"/>
</svg>
