<svg width="24" height="24" viewBox="0 0 24 24" fill="none" xmlns="http://www.w3.org/2000/svg">
<path d="M10.8 22.098C10.51 22.098 10.22 22.048 9.95004 21.948C8.70004 21.538 7.90004 20.158 8.18004 18.878L8.67004 15.728C8.68004 15.658 8.68004 15.558 8.61004 15.478C8.58363 15.4521 8.55237 15.4317 8.51804 15.418C8.48371 15.4043 8.44701 15.3975 8.41004 15.398H4.41004C3.43004 15.398 2.58004 14.988 2.08004 14.278C1.59004 13.588 1.49004 12.678 1.81004 11.798L4.20004 4.518C4.57004 3.068 6.12004 1.898 7.72004 1.898H11.52C12.08 1.898 13.3 2.068 13.95 2.718L16.98 5.058L16.06 6.248L12.96 3.848C12.71 3.598 12.08 3.398 11.52 3.398H7.72004C6.82004 3.398 5.85004 4.118 5.65004 4.928L3.23004 12.278C3.07004 12.718 3.10004 13.118 3.31004 13.408C3.53004 13.718 3.93004 13.898 4.42004 13.898H8.42004C8.94004 13.898 9.42004 14.118 9.75004 14.498C10.09 14.888 10.24 15.408 10.16 15.948L9.66004 19.158C9.54004 19.718 9.92004 20.348 10.46 20.528C10.94 20.708 11.58 20.448 11.8 20.128L15.9 14.028L17.14 14.868L13.04 20.968C12.57 21.668 11.68 22.098 10.8 22.098Z" fill="#B55253"/>
<path d="M19.6201 18.1H18.6201C16.7701 18.1 15.8701 17.23 15.8701 15.45V5.65C15.8701 3.87 16.7701 3 18.6201 3H19.6201C21.4701 3 22.3701 3.87 22.3701 5.65V15.45C22.3701 17.23 21.4701 18.1 19.6201 18.1ZM18.6201 4.5C17.5301 4.5 17.3701 4.76 17.3701 5.65V15.45C17.3701 16.34 17.5301 16.6 18.6201 16.6H19.6201C20.7101 16.6 20.8701 16.34 20.8701 15.45V5.65C20.8701 4.76 20.7101 4.5 19.6201 4.5H18.6201Z" fill="#B55253"/>
</svg>
