<svg width="24" height="24" viewBox="0 0 24 24" fill="none" xmlns="http://www.w3.org/2000/svg">
<path d="M16.2801 22.1H12.4801C11.9201 22.1 10.7001 21.93 10.0501 21.28L7.02011 18.94L7.94011 17.75L11.0401 20.15C11.2901 20.39 11.9201 20.59 12.4801 20.59H16.2801C17.1801 20.59 18.1501 19.87 18.3501 19.06L20.7701 11.71C20.9301 11.27 20.9001 10.87 20.6901 10.58C20.4701 10.27 20.0701 10.09 19.5801 10.09H15.5801C15.0601 10.09 14.5801 9.87 14.2501 9.49C13.9101 9.1 13.7601 8.58 13.8401 8.04L14.3401 4.83C14.4601 4.27 14.0801 3.64 13.5401 3.46C13.0501 3.28 12.4201 3.54 12.2001 3.86L8.10011 9.96L6.86011 9.13L10.9601 3.03C11.5901 2.09 12.9701 1.64 14.0501 2.05C15.3001 2.46 16.1001 3.84 15.8201 5.12L15.3301 8.27C15.3201 8.34 15.3201 8.44 15.3901 8.52C15.4401 8.57 15.5101 8.6 15.5901 8.6H19.5901C20.5701 8.6 21.4201 9.01 21.9201 9.72C22.4101 10.41 22.5101 11.32 22.1901 12.2L19.8001 19.48C19.4301 20.93 17.8901 22.1 16.2801 22.1Z" fill="#B55253"/>
<path d="M5.37988 20.998H4.37988C2.52988 20.998 1.62988 20.128 1.62988 18.348V8.548C1.62988 6.768 2.52988 5.898 4.37988 5.898H5.37988C7.22988 5.898 8.12988 6.768 8.12988 8.548V18.348C8.12988 20.128 7.22988 20.998 5.37988 20.998ZM4.37988 7.398C3.28988 7.398 3.12988 7.658 3.12988 8.548V18.348C3.12988 19.238 3.28988 19.498 4.37988 19.498H5.37988C6.46988 19.498 6.62988 19.238 6.62988 18.348V8.548C6.62988 7.658 6.46988 7.398 5.37988 7.398H4.37988Z" fill="#B55253"/>
</svg>
