<svg width="22" height="20" viewBox="0 0 22 20" fill="none" xmlns="http://www.w3.org/2000/svg">
<path d="M10.75 19.3001C10.44 19.3001 10.14 19.2601 9.89 19.1701C6.07 17.8601 0 13.2101 0 6.34006C0 2.84006 2.83 5.48716e-05 6.31 5.48716e-05C8 5.48716e-05 9.58 0.660055 10.75 1.84005C11.3308 1.25392 12.0226 0.789335 12.7849 0.47342C13.5472 0.157506 14.3648 -0.00341276 15.19 5.48716e-05C18.67 5.48716e-05 21.5 2.85006 21.5 6.34006C21.5 13.2201 15.43 17.8601 11.61 19.1701C11.36 19.2601 11.06 19.3001 10.75 19.3001ZM6.31 1.50005C3.66 1.50005 1.5 3.67006 1.5 6.34006C1.5 13.1701 8.07 16.9701 10.38 17.7601C10.56 17.8201 10.95 17.8201 11.13 17.7601C13.43 16.9701 20.01 13.1801 20.01 6.34006C20.01 3.67006 17.85 1.50005 15.2 1.50005C13.68 1.50005 12.27 2.21005 11.36 3.44005C11.08 3.82005 10.44 3.82005 10.16 3.44005C9.71564 2.83713 9.13554 2.34732 8.46668 2.01029C7.79781 1.67325 7.05898 1.49845 6.31 1.50005Z" fill="#FEFEFE"/>
</svg>
