<svg width="50" height="58" viewBox="0 0 50 58" fill="none" xmlns="http://www.w3.org/2000/svg">
<path d="M38.2243 0.61511H10.9162C4.91405 0.61511 0 5.52916 0 11.5313V51.4053C0 56.4948 3.65044 58.636 8.10818 56.1789L21.9026 48.492C23.3768 47.6846 25.7637 47.6846 27.2379 48.492L41.0323 56.1789C45.4901 58.636 49.1405 56.4948 49.1405 51.4053V11.5313C49.1405 5.52916 44.2264 0.61511 38.2243 0.61511ZM31.5903 24.729H17.5502C16.1111 24.729 14.9176 23.5356 14.9176 22.0965C14.9176 20.6574 16.1111 19.464 17.5502 19.464H31.5903C33.0294 19.464 34.2228 20.6574 34.2228 22.0965C34.2228 23.5356 33.0294 24.729 31.5903 24.729Z" fill="#B55253"/>
</svg>
