<svg width="48" height="48" viewBox="0 0 48 48" fill="none" xmlns="http://www.w3.org/2000/svg">
<g id="Iconsax/Outline/arrowcircleright">
<circle id="Ellipse 1" cx="24" cy="24" r="19.2" fill="#D9D9D9" fill-opacity="0.8"/>
<path id="Vector" d="M24 45.5C12.14 45.5 2.5 35.86 2.5 24C2.5 12.14 12.14 2.5 24 2.5C35.86 2.5 45.5 12.14 45.5 24C45.5 35.86 35.86 45.5 24 45.5ZM24 5.5C13.8 5.5 5.5 13.8 5.5 24C5.5 34.2 13.8 42.5 24 42.5C34.2 42.5 42.5 34.2 42.5 24C42.5 13.8 34.2 5.5 24 5.5Z" fill="#B55253"/>
<path id="Vector_2" d="M21.48 32.5599C21.1 32.5599 20.72 32.4199 20.42 32.1199C20.1411 31.8377 19.9846 31.4568 19.9846 31.0599C19.9846 30.6631 20.1411 30.2822 20.42 29.9999L26.42 23.9999L20.42 17.9999C20.1411 17.7177 19.9846 17.3368 19.9846 16.9399C19.9846 16.5431 20.1411 16.1622 20.42 15.8799C21 15.2999 21.96 15.2999 22.54 15.8799L29.6 22.9399C30.18 23.5199 30.18 24.4799 29.6 25.0599L22.54 32.1199C22.24 32.4199 21.86 32.5599 21.48 32.5599Z" fill="#B55253"/>
</g>
</svg>
