<svg width="16" height="16" viewBox="0 0 16 16" fill="none" xmlns="http://www.w3.org/2000/svg">
<g id="Iconsax/Outline/arrowdown2">
<path id="Vector" d="M7.99999 11.1999C7.53333 11.1999 7.06666 11.0199 6.71333 10.6666L2.36666 6.31993C2.27367 6.22584 2.22153 6.09888 2.22153 5.96659C2.22153 5.83431 2.27367 5.70735 2.36666 5.61326C2.55999 5.41993 2.87999 5.41993 3.07333 5.61326L7.41999 9.95993C7.73999 10.2799 8.25999 10.2799 8.57999 9.95993L12.9267 5.61326C13.12 5.41993 13.44 5.41993 13.6333 5.61326C13.8267 5.8066 13.8267 6.12659 13.6333 6.31993L9.28666 10.6666C8.93333 11.0199 8.46666 11.1999 7.99999 11.1999Z" fill="#FEFEFE"/>
</g>
</svg>
