<svg width="48" height="48" viewBox="0 0 48 48" fill="none" xmlns="http://www.w3.org/2000/svg">
<g id="Iconsax/Outline/arrowcircleright">
<circle id="Ellipse 1" cx="24" cy="24" r="19.2" transform="rotate(180 24 24)" fill="#D9D9D9" fill-opacity="0.8"/>
<path id="Vector" d="M24 2.5C35.86 2.5 45.5 12.14 45.5 24C45.5 35.86 35.86 45.5 24 45.5C12.14 45.5 2.5 35.86 2.5 24C2.5 12.14 12.14 2.5 24 2.5ZM24 42.5C34.2 42.5 42.5 34.2 42.5 24C42.5 13.8 34.2 5.5 24 5.5C13.8 5.5 5.5 13.8 5.5 24C5.5 34.2 13.8 42.5 24 42.5Z" fill="#B55253"/>
<path id="Vector_2" d="M26.52 15.4401C26.9 15.4401 27.28 15.5801 27.58 15.8801C27.8589 16.1623 28.0154 16.5432 28.0154 16.9401C28.0154 17.3369 27.8589 17.7178 27.58 18.0001L21.58 24.0001L27.58 30.0001C27.8589 30.2823 28.0154 30.6632 28.0154 31.0601C28.0154 31.4569 27.8589 31.8378 27.58 32.1201C27 32.7001 26.04 32.7001 25.46 32.1201L18.4 25.0601C17.82 24.4801 17.82 23.5201 18.4 22.9401L25.46 15.8801C25.76 15.5801 26.14 15.4401 26.52 15.4401Z" fill="#B55253"/>
</g>
</svg>
