<svg width="56" height="56" viewBox="0 0 56 56" fill="none" xmlns="http://www.w3.org/2000/svg">
<path d="M35.2104 7.76996C35.6538 7.76996 36.0971 7.93329 36.4471 8.28329C36.7726 8.61261 36.9551 9.05695 36.9551 9.51996C36.9551 9.98296 36.7726 10.4273 36.4471 10.7566L21.2338 25.97C20.1138 27.09 20.1138 28.91 21.2338 30.03L36.4471 45.2433C36.7726 45.5726 36.9551 46.017 36.9551 46.48C36.9551 46.943 36.7726 47.3873 36.4471 47.7166C35.7704 48.3933 34.6504 48.3933 33.9738 47.7166L18.7604 32.5033C17.5704 31.3133 16.8938 29.7033 16.8938 28C16.8938 26.2966 17.5471 24.6866 18.7604 23.4966L33.9738 8.28329C34.3238 7.95662 34.7671 7.76996 35.2104 7.76996Z" fill="#52B5B4"/>
</svg>
