<svg width="56" height="56" viewBox="0 0 56 56" fill="none" xmlns="http://www.w3.org/2000/svg">
<path d="M20.7896 48.23C20.3462 48.23 19.9029 48.0667 19.5529 47.7167C19.2274 47.3874 19.0449 46.943 19.0449 46.48C19.0449 46.017 19.2274 45.5727 19.5529 45.2434L34.7662 30.03C35.8862 28.91 35.8862 27.09 34.7662 25.97L19.5529 10.7567C19.2274 10.4274 19.0449 9.98305 19.0449 9.52005C19.0449 9.05704 19.2274 8.6127 19.5529 8.28338C20.2296 7.60671 21.3496 7.60671 22.0262 8.28338L37.2396 23.4967C38.4296 24.6867 39.1062 26.2967 39.1062 28C39.1062 29.7034 38.4529 31.3134 37.2396 32.5034L22.0262 47.7167C21.6762 48.0434 21.2329 48.23 20.7896 48.23Z" fill="#52B5B4"/>
</svg>
