<svg width="40" height="40" viewBox="0 0 40 40" fill="none" xmlns="http://www.w3.org/2000/svg">
<g id="Component 1">
<g id="Vector">
<path d="M0 25.5814C0 35.6837 4.31628 40 14.4186 40H20V37.2093H14.4186C5.84186 37.2093 2.7907 34.1581 2.7907 25.5814V14.4186C2.7907 5.84186 5.84186 2.7907 14.4186 2.7907H25.5814C34.1581 2.7907 37.2093 5.84186 37.2093 14.4186V25.5814H40V14.4186C40 4.31628 35.6837 0 25.5814 0H14.4186C4.31628 0 0 4.31628 0 14.4186V25.5814Z" fill="#B55253"/>
<path d="M31.5152 23.0303H35.1515V35.1515H21.8182V31.5152H31.5152V23.0303Z" fill="#B55253"/>
</g>
<path id="Vector_2" d="M15.9843 29C15.1193 29 14.316 28.794 13.5951 28.3821C11.9474 27.4347 11 25.4986 11 23.0477V16.9512C11 14.5208 11.9474 12.5642 13.5951 11.6167C15.2428 10.6693 17.3849 10.8135 19.5063 12.0492L24.7995 15.0975C26.9003 16.3127 28.1155 18.1046 28.1155 19.9994C28.1155 21.8943 26.9003 23.6862 24.7995 24.9013L19.5063 27.9496C18.3117 28.6499 17.0965 29 15.9843 29ZM16.0049 14.0883C15.6754 14.0883 15.387 14.1501 15.1604 14.2942C14.5014 14.6856 14.11 15.6536 14.11 16.9512V23.0477C14.11 24.3452 14.4808 25.3133 15.1604 25.7046C15.8195 26.0959 16.8493 25.9312 17.9821 25.2721L23.2754 22.2238C24.4082 21.5647 25.0467 20.7615 25.0467 19.9994C25.0467 19.2374 24.4082 18.4135 23.2754 17.775L17.9821 14.7268C17.2407 14.2942 16.561 14.0883 16.0049 14.0883Z" fill="#52B5B4"/>
<circle id="Ellipse 2" cx="26.5" cy="38.5" r="1.5" fill="#52B5B4"/>
</g>
</svg>
