<svg width="40" height="40" viewBox="0 0 40 40" fill="none" xmlns="http://www.w3.org/2000/svg">
<g id="Iconsax/Outline/videosquare">
<path id="Vector" d="M25 37.9167H15C5.95001 37.9167 2.08334 34.05 2.08334 25V15C2.08334 5.95004 5.95001 2.08337 15 2.08337H25C34.05 2.08337 37.9167 5.95004 37.9167 15V25C37.9167 34.05 34.05 37.9167 25 37.9167ZM15 4.58337C7.31668 4.58337 4.58334 7.31671 4.58334 15V25C4.58334 32.6834 7.31668 35.4167 15 35.4167H25C32.6833 35.4167 35.4167 32.6834 35.4167 25V15C35.4167 7.31671 32.6833 4.58337 25 4.58337H15Z" fill="#B55253"/>
<path id="Vector_2" d="M17.9333 27.28C17.2333 27.28 16.5833 27.1133 16 26.78C14.6667 26.0133 13.9 24.4466 13.9 22.4633V17.53C13.9 15.5633 14.6667 13.98 16 13.2133C17.3333 12.4466 19.0667 12.5633 20.7833 13.5633L25.0667 16.03C26.7667 17.0133 27.75 18.4633 27.75 19.9966C27.75 21.53 26.7667 22.98 25.0667 23.9633L20.7833 26.43C19.8167 26.9966 18.8333 27.28 17.9333 27.28ZM17.95 15.2133C17.6833 15.2133 17.45 15.2633 17.2667 15.38C16.7333 15.6966 16.4167 16.48 16.4167 17.53V22.4633C16.4167 23.5133 16.7167 24.2966 17.2667 24.6133C17.8 24.93 18.6333 24.7966 19.55 24.2633L23.8333 21.7966C24.75 21.2633 25.2667 20.6133 25.2667 19.9966C25.2667 19.38 24.75 18.7133 23.8333 18.1966L19.55 15.73C18.95 15.38 18.4 15.2133 17.95 15.2133Z" fill="#FEFEFE"/>
</g>
</svg>
