<svg width="40" height="40" viewBox="0 0 40 40" fill="none" xmlns="http://www.w3.org/2000/svg">
<g id="Iconsax/Outline/emojihappy">
<path id="Vector" d="M25 37.9167H15C5.95001 37.9167 2.08334 34.05 2.08334 25V15C2.08334 5.95004 5.95001 2.08337 15 2.08337H25C34.05 2.08337 37.9167 5.95004 37.9167 15V25C37.9167 34.05 34.05 37.9167 25 37.9167ZM15 4.58337C7.31668 4.58337 4.58334 7.31671 4.58334 15V25C4.58334 32.6834 7.31668 35.4167 15 35.4167H25C32.6833 35.4167 35.4167 32.6834 35.4167 25V15C35.4167 7.31671 32.6833 4.58337 25 4.58337H15Z" fill="#B55253"/>
<path id="Vector_2" d="M24.8696 18.3569C23.1443 18.3569 21.7391 16.9301 21.7391 15.1784C21.7391 13.4268 23.1443 12 24.8696 12C26.5948 12 28 13.4268 28 15.1784C28 16.9301 26.5948 18.3569 24.8696 18.3569ZM24.8696 14.119C24.2991 14.119 23.8261 14.5993 23.8261 15.1784C23.8261 15.7576 24.2991 16.2379 24.8696 16.2379C25.44 16.2379 25.913 15.7576 25.913 15.1784C25.913 14.5993 25.44 14.119 24.8696 14.119ZM15.1304 18.3569C13.4052 18.3569 12 16.9301 12 15.1784C12 13.4268 13.4052 12 15.1304 12C16.8557 12 18.2609 13.4268 18.2609 15.1784C18.2609 16.9301 16.8557 18.3569 15.1304 18.3569ZM15.1304 14.119C14.56 14.119 14.087 14.5993 14.087 15.1784C14.087 15.7576 14.56 16.2379 15.1304 16.2379C15.7009 16.2379 16.1739 15.7576 16.1739 15.1784C16.1739 14.5993 15.7009 14.119 15.1304 14.119ZM20 31C15.9652 31 12.6957 27.6662 12.6957 23.5836C12.6957 22.2981 13.7252 21.2528 14.9913 21.2528H25.0087C26.2748 21.2528 27.3043 22.2981 27.3043 23.5836C27.3043 27.6662 24.0348 31 20 31ZM14.9913 23.3717C14.88 23.3717 14.7826 23.4706 14.7826 23.5836C14.7826 26.5078 17.12 28.881 20 28.881C22.88 28.881 25.2174 26.5078 25.2174 23.5836C25.2174 23.4706 25.12 23.3717 25.0087 23.3717H14.9913Z" fill="#FEFEFE"/>
</g>
</svg>
