<svg width="40" height="40" viewBox="0 0 40 40" fill="none" xmlns="http://www.w3.org/2000/svg">
<g id="Iconsax/Outline/videoplay">
<path id="Vector" d="M25 37.9167H15C5.95 37.9167 2.08333 34.05 2.08333 25V15C2.08333 5.95004 5.95 2.08337 15 2.08337H25C34.05 2.08337 37.9167 5.95004 37.9167 15V25C37.9167 34.05 34.05 37.9167 25 37.9167ZM15 4.58337C7.31667 4.58337 4.58333 7.31671 4.58333 15V25C4.58333 32.6834 7.31667 35.4167 15 35.4167H25C32.6833 35.4167 35.4167 32.6834 35.4167 25V15C35.4167 7.31671 32.6833 4.58337 25 4.58337H15Z" fill="#B55253"/>
<path id="Vector_2" d="M35.8 13.1H4.2C3.86848 13.1 3.55054 12.9683 3.31612 12.7339C3.0817 12.4994 2.95 12.1815 2.95 11.85C2.95 11.5185 3.0817 11.2005 3.31612 10.9661C3.55054 10.7317 3.86848 10.6 4.2 10.6H35.8C36.1315 10.6 36.4495 10.7317 36.6839 10.9661C36.9183 11.2005 37.05 11.5185 37.05 11.85C37.05 12.1815 36.9183 12.4994 36.6839 12.7339C36.4495 12.9683 36.1315 13.1 35.8 13.1Z" fill="#B55253"/>
<path id="Vector_3" d="M14.2 12.8667C13.5167 12.8667 12.95 12.3001 12.95 11.6167V3.51672C12.95 2.83339 13.5167 2.26672 14.2 2.26672C14.8833 2.26672 15.45 2.83339 15.45 3.51672V11.6167C15.45 12.3001 14.8833 12.8667 14.2 12.8667ZM25.8 12.1167C25.1167 12.1167 24.55 11.5501 24.55 10.8667V3.51672C24.55 2.83339 25.1167 2.26672 25.8 2.26672C26.4833 2.26672 27.05 2.83339 27.05 3.51672V10.8667C27.05 11.5667 26.5 12.1167 25.8 12.1167ZM18.4833 30.2017C17.8833 30.2017 17.3167 30.0517 16.8 29.7684C15.6667 29.1017 15 27.7684 15 26.0851V22.0851C15 20.4017 15.6667 19.0517 16.8167 18.3851C17.9667 17.7184 19.4667 17.8184 20.9167 18.6684L24.3833 20.6684C25.8333 21.5017 26.6833 22.7517 26.6833 24.0851C26.6833 25.4184 25.8333 26.6684 24.3667 27.5017L20.9 29.5017C20.1 29.9684 19.2667 30.2017 18.4833 30.2017ZM18.5 20.4517C18.3333 20.4517 18.1833 20.4851 18.0667 20.5517C17.7167 20.7517 17.5 21.3184 17.5 22.0851V26.0851C17.5 26.8351 17.7167 27.4017 18.0667 27.6184C18.4167 27.8184 19.0167 27.7184 19.6667 27.3351L23.1333 25.3351C23.7833 24.9517 24.1833 24.4851 24.1833 24.0851C24.1833 23.6851 23.8 23.2184 23.1333 22.8351L19.6667 20.8351C19.2333 20.5851 18.8167 20.4517 18.5 20.4517Z" fill="#FEFEFE"/>
</g>
</svg>
