<svg width="121" height="121" viewBox="0 0 121 121" fill="none" xmlns="http://www.w3.org/2000/svg">
<path d="M60.2525 0C26.993 0 0 26.993 0 60.2522C0 93.5115 26.993 120.504 60.2525 120.504C93.5118 120.504 120.505 93.5115 120.505 60.2522C120.505 26.993 93.572 0 60.2525 0ZM78.3282 73.6885L60.8545 83.7506C58.6854 85.0159 56.2759 85.6184 53.9255 85.6184C51.516 85.6184 49.1655 85.0159 46.9967 83.7506C42.6586 81.22 40.0677 76.7613 40.0677 71.7002V51.5157C40.0677 46.5147 42.6586 41.9958 46.9967 39.4652C51.3352 36.9346 56.5163 36.9346 60.9147 39.4652L78.3879 49.5273C82.726 52.0579 85.3169 56.5166 85.3169 61.5778C85.3169 66.639 82.726 71.1579 78.3282 73.6885Z" fill="white"/>
</svg>
