<svg width="32" height="32" viewBox="0 0 32 32" fill="none" xmlns="http://www.w3.org/2000/svg">
<g id="Iconsax/Outline/searchnormal1">
<path id="Vector" d="M15.3333 29C7.79999 29 1.66666 22.8666 1.66666 15.3333C1.66666 7.79996 7.79999 1.66663 15.3333 1.66663C22.8667 1.66663 29 7.79996 29 15.3333C29 22.8666 22.8667 29 15.3333 29ZM15.3333 3.66663C8.89332 3.66663 3.66666 8.90663 3.66666 15.3333C3.66666 21.76 8.89332 27 15.3333 27C21.7733 27 27 21.76 27 15.3333C27 8.90663 21.7733 3.66663 15.3333 3.66663ZM29.3333 30.3346C29.08 30.3346 28.8267 30.2413 28.6267 30.0413L25.96 27.3746C25.774 27.1864 25.6697 26.9325 25.6697 26.668C25.6697 26.4034 25.774 26.1495 25.96 25.9613C26.3467 25.5746 26.9867 25.5746 27.3733 25.9613L30.04 28.628C30.4267 29.0146 30.4267 29.6546 30.04 30.0413C29.84 30.2413 29.5867 30.3346 29.3333 30.3346Z" fill="#FEFEFE"/>
</g>
</svg>
