<svg width="16" height="15" viewBox="0 0 16 15" fill="none" xmlns="http://www.w3.org/2000/svg">
<path d="M8 14.3628C7.7693 14.3628 7.54605 14.3331 7.36 14.2661C4.51721 13.2912 0 9.83074 0 4.71818C0 2.11353 2.10605 4.08347e-05 4.69581 4.08347e-05C5.95349 4.08347e-05 7.1293 0.491204 8 1.36934C8.43225 0.933147 8.94705 0.587412 9.51435 0.352313C10.0817 0.117214 10.6901 -0.00253973 11.3042 4.08347e-05C13.894 4.08347e-05 16 2.12097 16 4.71818C16 9.83818 11.4828 13.2912 8.64 14.2661C8.45395 14.3331 8.2307 14.3628 8 14.3628ZM4.69581 1.11632C2.72372 1.11632 1.11628 2.7312 1.11628 4.71818C1.11628 9.80097 6.00558 12.6289 7.72465 13.2168C7.8586 13.2614 8.14884 13.2614 8.28279 13.2168C9.99442 12.6289 14.8912 9.80841 14.8912 4.71818C14.8912 2.7312 13.2837 1.11632 11.3116 1.11632C10.1805 1.11632 9.13116 1.64469 8.45395 2.56004C8.24558 2.84283 7.7693 2.84283 7.56093 2.56004C7.23024 2.11135 6.79854 1.74685 6.30078 1.49603C5.80302 1.24521 5.25319 1.11513 4.69581 1.11632Z" fill="#B55253"/>
</svg>
