<svg width="24" height="24" viewBox="0 0 24 24" fill="none" xmlns="http://www.w3.org/2000/svg">
<path d="M8.76003 1.73002L8.89003 1.73002C13.33 1.73002 15.47 3.48002 15.84 7.40002C15.88 7.81002 15.58 8.18002 15.16 8.22002C14.75 8.26002 14.38 7.95002 14.34 7.54002C14.05 4.40002 12.57 3.23002 8.88003 3.23002L8.75003 3.23002C4.68003 3.23002 3.24003 4.67002 3.24003 8.74002L3.24003 15.26C3.24003 19.33 4.68003 20.77 8.75003 20.77L8.88003 20.77C12.59 20.77 14.07 19.58 14.34 16.38C14.39 15.97 14.73 15.66 15.16 15.7C15.2586 15.7077 15.3547 15.7348 15.4427 15.7797C15.5308 15.8246 15.6091 15.8865 15.6732 15.9617C15.7373 16.037 15.786 16.1242 15.8163 16.2183C15.8466 16.3123 15.8581 16.4115 15.85 16.51C15.51 20.49 13.36 22.27 8.89003 22.27L8.76003 22.27C3.85003 22.27 1.75003 20.17 1.75003 15.26L1.75003 8.74002C1.75003 3.83002 3.85003 1.73002 8.76003 1.73002Z" fill="#FEFEFE"/>
<path d="M9.12 11.25L22 11.25C22.41 11.25 22.75 11.59 22.75 12C22.75 12.41 22.41 12.75 22 12.75L9.12 12.75C8.92109 12.75 8.73032 12.671 8.58967 12.5303C8.44902 12.3897 8.37 12.1989 8.37 12C8.37 11.8011 8.44902 11.6103 8.58967 11.4697C8.73032 11.329 8.92109 11.25 9.12 11.25Z" fill="#FEFEFE"/>
<path d="M11.35 7.90003C11.54 7.90003 11.73 7.97003 11.88 8.12003C12.0194 8.26117 12.0977 8.4516 12.0977 8.65003C12.0977 8.84846 12.0194 9.0389 11.88 9.18003L9.05995 12L11.88 14.82C12.0194 14.9612 12.0977 15.1516 12.0977 15.35C12.0977 15.5485 12.0194 15.7389 11.88 15.88C11.59 16.17 11.11 16.17 10.82 15.88L7.46995 12.53C7.17995 12.24 7.17995 11.76 7.46995 11.47L10.82 8.12003C10.97 7.97003 11.16 7.90003 11.35 7.90003Z" fill="#FEFEFE"/>
</svg>
