<svg width="128" height="128" viewBox="0 0 128 128" fill="none" xmlns="http://www.w3.org/2000/svg">
<path d="M79.9998 121.333H47.9998C19.0398 121.333 6.6665 108.96 6.6665 80V48C6.6665 19.04 19.0398 6.66663 47.9998 6.66663H79.9998C108.96 6.66663 121.333 19.04 121.333 48V80C121.333 108.96 108.96 121.333 79.9998 121.333ZM47.9998 14.6666C23.4132 14.6666 14.6665 23.4133 14.6665 48V80C14.6665 104.587 23.4132 113.333 47.9998 113.333H79.9998C104.587 113.333 113.333 104.587 113.333 80V48C113.333 23.4133 104.587 14.6666 79.9998 14.6666H47.9998Z" fill="#52B5B4"/>
<path d="M56.4268 83.104C55.3663 83.1031 54.3495 82.681 53.6001 81.9307L38.5068 66.8373C37.7629 66.0846 37.3457 65.0689 37.3457 64.0107C37.3457 62.9524 37.7629 61.9367 38.5068 61.184C40.0534 59.6373 42.6134 59.6373 44.1601 61.184L56.4268 73.4507L83.8401 46.0373C85.3868 44.4907 87.9468 44.4907 89.4934 46.0373C91.0401 47.584 91.0401 50.144 89.4934 51.6907L59.2534 81.9307C58.504 82.681 57.4873 83.1031 56.4268 83.104Z" fill="#52B5B4"/>
</svg>
