<svg width="24" height="24" viewBox="0 0 24 24" fill="none" xmlns="http://www.w3.org/2000/svg">
<path d="M12.159 11.62H12.079C12.0195 11.61 11.9586 11.61 11.899 11.62C8.99905 11.53 6.80905 9.25 6.80905 6.44C6.80905 3.58 9.13905 1.25 11.999 1.25C14.859 1.25 17.189 3.58 17.189 6.44C17.179 9.25 14.979 11.53 12.189 11.62H12.159ZM11.999 2.75C11.0212 2.75264 10.0842 3.14225 9.39274 3.83369C8.7013 4.52513 8.31169 5.46216 8.30905 6.44C8.30905 8.44 9.86905 10.05 11.859 10.12C11.909 10.11 12.049 10.11 12.179 10.12C14.139 10.03 15.679 8.42 15.689 6.44C15.6864 5.46216 15.2968 4.52513 14.6054 3.83369C13.9139 3.14225 12.9769 2.75264 11.999 2.75ZM12.172 22.55C10.212 22.55 8.24205 22.05 6.75205 21.05C5.36205 20.13 4.60205 18.87 4.60205 17.5C4.60205 16.13 5.36205 14.86 6.75205 13.93C9.75205 11.94 14.612 11.94 17.592 13.93C18.972 14.85 19.742 16.11 19.742 17.48C19.742 18.85 18.982 20.12 17.592 21.05C16.092 22.05 14.132 22.55 12.172 22.55ZM7.58205 15.19C6.62205 15.83 6.10205 16.65 6.10205 17.51C6.10205 18.36 6.63205 19.18 7.58205 19.81C10.072 21.48 14.272 21.48 16.762 19.81C17.722 19.17 18.242 18.35 18.242 17.49C18.242 16.64 17.712 15.82 16.762 15.19C14.272 13.53 10.072 13.53 7.58205 15.19Z" fill="black"/>
</svg>
