<svg width="48" height="48" viewBox="0 0 48 48" fill="none" xmlns="http://www.w3.org/2000/svg">
<path d="M24.1599 26.04H23.9332C20.9065 25.9466 18.6399 23.5866 18.6399 20.68C18.6399 17.72 21.0532 15.3066 24.0132 15.3066C26.9732 15.3066 29.3865 17.72 29.3865 20.68C29.3893 22.0726 28.8491 23.4115 27.8807 24.4123C26.9122 25.4131 25.5919 25.997 24.1999 26.04H24.1599ZM23.9999 17.2933C22.1332 17.2933 20.6265 18.8133 20.6265 20.6666C20.6225 21.5397 20.9585 22.38 21.5632 23.0096C22.168 23.6393 22.9941 24.0088 23.8665 24.04C23.9683 24.0259 24.0715 24.0259 24.1732 24.04C25.0369 23.9939 25.8501 23.6185 26.4454 22.991C27.0407 22.3634 27.3727 21.5316 27.3732 20.6666C27.3732 18.8133 25.8665 17.2933 23.9999 17.2933ZM23.9999 38.3333C20.4132 38.3333 16.9865 37 14.3332 34.5733C14.2184 34.4677 14.1298 34.3368 14.0742 34.191C14.0187 34.0452 13.9978 33.8885 14.0132 33.7333C14.1865 32.1466 15.1732 30.6666 16.8132 29.5733C20.7865 26.9333 27.2265 26.9333 31.1865 29.5733C32.8265 30.68 33.8132 32.1466 33.9865 33.7333C34.0265 34.0533 33.9065 34.36 33.6665 34.5733C31.0295 36.9939 27.5795 38.3359 23.9999 38.3333ZM16.1065 33.4666C18.3189 35.3203 21.1136 36.3353 23.9999 36.3333C26.8932 36.3333 29.6799 35.32 31.8932 33.4666C31.6532 32.6533 31.0132 31.8666 30.0665 31.2266C26.7865 29.04 21.2265 29.04 17.9199 31.2266C16.9732 31.8666 16.3465 32.6533 16.1065 33.4666Z" fill="#FEFEFE"/>
<path d="M24.1599 26.04H23.9332C20.9065 25.9466 18.6399 23.5866 18.6399 20.68C18.6399 17.72 21.0532 15.3066 24.0132 15.3066C26.9732 15.3066 29.3865 17.72 29.3865 20.68C29.3893 22.0726 28.8491 23.4115 27.8807 24.4123C26.9122 25.4131 25.5919 25.997 24.1999 26.04H24.1599ZM23.9999 17.2933C22.1332 17.2933 20.6265 18.8133 20.6265 20.6666C20.6225 21.5397 20.9585 22.38 21.5632 23.0096C22.168 23.6393 22.9941 24.0088 23.8665 24.04C23.9683 24.0259 24.0715 24.0259 24.1732 24.04C25.0369 23.9939 25.8501 23.6185 26.4454 22.991C27.0407 22.3634 27.3727 21.5316 27.3732 20.6666C27.3732 18.8133 25.8665 17.2933 23.9999 17.2933ZM23.9999 38.3333C20.4132 38.3333 16.9865 37 14.3332 34.5733C14.2184 34.4677 14.1298 34.3368 14.0742 34.191C14.0187 34.0452 13.9978 33.8885 14.0132 33.7333C14.1865 32.1466 15.1732 30.6666 16.8132 29.5733C20.7865 26.9333 27.2265 26.9333 31.1865 29.5733C32.8265 30.68 33.8132 32.1466 33.9865 33.7333C34.0265 34.0533 33.9065 34.36 33.6665 34.5733C31.0295 36.9939 27.5795 38.3359 23.9999 38.3333ZM16.1065 33.4666C18.3189 35.3203 21.1136 36.3353 23.9999 36.3333C26.8932 36.3333 29.6799 35.32 31.8932 33.4666C31.6532 32.6533 31.0132 31.8666 30.0665 31.2266C26.7865 29.04 21.2265 29.04 17.9199 31.2266C16.9732 31.8666 16.3465 32.6533 16.1065 33.4666Z" fill="#FEFEFE"/>
<path d="M24.0001 38.3332C16.0934 38.3332 9.66675 31.9065 9.66675 23.9998C9.66675 16.0932 16.0934 9.6665 24.0001 9.6665C31.9067 9.6665 38.3334 16.0932 38.3334 23.9998C38.3334 31.9065 31.9067 38.3332 24.0001 38.3332ZM24.0001 11.6665C17.2001 11.6665 11.6667 17.1998 11.6667 23.9998C11.6667 30.7998 17.2001 36.3332 24.0001 36.3332C30.8001 36.3332 36.3334 30.7998 36.3334 23.9998C36.3334 17.1998 30.8001 11.6665 24.0001 11.6665Z" fill="#FEFEFE"/>
<path d="M24.0001 38.3332C16.0934 38.3332 9.66675 31.9065 9.66675 23.9998C9.66675 16.0932 16.0934 9.6665 24.0001 9.6665C31.9067 9.6665 38.3334 16.0932 38.3334 23.9998C38.3334 31.9065 31.9067 38.3332 24.0001 38.3332ZM24.0001 11.6665C17.2001 11.6665 11.6667 17.1998 11.6667 23.9998C11.6667 30.7998 17.2001 36.3332 24.0001 36.3332C30.8001 36.3332 36.3334 30.7998 36.3334 23.9998C36.3334 17.1998 30.8001 11.6665 24.0001 11.6665Z" fill="#FEFEFE"/>
</svg>
