<svg width="16" height="16" viewBox="0 0 16 16" fill="none" xmlns="http://www.w3.org/2000/svg">
<path d="M10.0601 2.21999C10.1868 2.21999 10.3135 2.26665 10.4135 2.36665C10.5064 2.46074 10.5586 2.5877 10.5586 2.71999C10.5586 2.85227 10.5064 2.97923 10.4135 3.07332L6.06679 7.41999C5.74679 7.73999 5.74679 8.25999 6.06679 8.57999L10.4135 12.9267C10.5064 13.0207 10.5586 13.1477 10.5586 13.28C10.5586 13.4123 10.5064 13.5392 10.4135 13.6333C10.2201 13.8267 9.90013 13.8267 9.70679 13.6333L5.36013 9.28665C5.02013 8.94665 4.82679 8.48665 4.82679 7.99999C4.82679 7.51332 5.01346 7.05332 5.36012 6.71332L9.70679 2.36665C9.80679 2.27332 9.93346 2.21999 10.0601 2.21999Z" fill="#52B5B4"/>
</svg>
