<svg width="20" height="20" viewBox="0 0 20 20" fill="none" xmlns="http://www.w3.org/2000/svg">
<path d="M13.3075 18.9583H6.64083C3.79083 18.9583 2.6825 17.8499 2.6825 14.9999V8.33325C2.6825 7.99159 2.96583 7.70825 3.3075 7.70825H16.6408C16.9825 7.70825 17.2658 7.99159 17.2658 8.33325V14.9999C17.2658 17.8499 16.1575 18.9583 13.3075 18.9583ZM3.93249 8.95825V14.9999C3.93249 17.1499 4.49083 17.7083 6.64083 17.7083H13.3075C15.4575 17.7083 16.0158 17.1499 16.0158 14.9999V8.95825H3.93249Z" fill="black"/>
<path d="M16.25 8.95841H3.74998C2.29165 8.95841 1.45831 8.12508 1.45831 6.66675V5.83341C1.45831 4.37508 2.29165 3.54175 3.74998 3.54175H16.25C17.6666 3.54175 18.5416 4.41675 18.5416 5.83341V6.66675C18.5416 8.08341 17.6666 8.95841 16.25 8.95841ZM3.74998 4.79175C2.99165 4.79175 2.70831 5.07508 2.70831 5.83341V6.66675C2.70831 7.42508 2.99165 7.70841 3.74998 7.70841H16.25C16.9833 7.70841 17.2916 7.40008 17.2916 6.66675V5.83341C17.2916 5.10008 16.9833 4.79175 16.25 4.79175H3.74998Z" fill="black"/>
<path d="M9.69998 4.79076H5.09998C4.92498 4.79076 4.75831 4.71576 4.64164 4.59076C4.13331 4.03242 4.14998 3.17409 4.68331 2.64076L5.86664 1.45742C6.41664 0.907422 7.32498 0.907422 7.87498 1.45742L10.1416 3.72409C10.3166 3.89909 10.375 4.17409 10.275 4.40742C10.1833 4.64076 9.95831 4.79076 9.69998 4.79076ZM5.55831 3.54076H8.19998L6.99164 2.34076C6.97578 2.32488 6.95694 2.31229 6.93621 2.3037C6.91548 2.29511 6.89325 2.29068 6.87081 2.29068C6.84837 2.29068 6.82614 2.29511 6.80541 2.3037C6.78468 2.31229 6.76584 2.32488 6.74998 2.34076L5.56664 3.52409C5.56664 3.53242 5.55831 3.53242 5.55831 3.54076Z" fill="black"/>
<path d="M14.8916 4.79076H10.2916C10.1685 4.79159 10.0479 4.75552 9.9454 4.6872C9.84292 4.61888 9.76324 4.52143 9.71664 4.40742C9.61664 4.17409 9.67497 3.90742 9.84997 3.72409L12.1166 1.45742C12.6666 0.907422 13.575 0.907422 14.125 1.45742L15.3083 2.64076C15.8416 3.17409 15.8666 4.03242 15.35 4.59076C15.2333 4.71576 15.0666 4.79076 14.8916 4.79076ZM11.8083 3.54076H14.45L14.4333 3.52409L13.25 2.34076C13.2341 2.32488 13.2153 2.31229 13.1945 2.3037C13.1738 2.29511 13.1516 2.29068 13.1291 2.29068C13.1067 2.29068 13.0845 2.29511 13.0637 2.3037C13.043 2.31229 13.0242 2.32488 13.0083 2.34076L11.8083 3.54076ZM8.28414 14.0833C7.8975 14.0828 7.52682 13.929 7.25343 13.6556C6.98003 13.3822 6.82625 13.0116 6.82581 12.6249V8.33326C6.82581 7.99159 7.10914 7.70826 7.45081 7.70826H12.4841C12.8258 7.70826 13.1091 7.99159 13.1091 8.33326V12.6083C13.1091 13.1499 12.8175 13.6416 12.3425 13.8916C11.8675 14.1499 11.2925 14.1166 10.8425 13.8166L10.1008 13.3166C10.0668 13.2922 10.026 13.279 9.98414 13.279C9.94228 13.279 9.90147 13.2922 9.86747 13.3166L9.08414 13.8333C8.84247 13.9999 8.55914 14.0833 8.28414 14.0833ZM8.07581 8.95826V12.6166C8.07581 12.7249 8.14247 12.7749 8.18414 12.7999C8.22581 12.8249 8.30914 12.8499 8.40081 12.7916L9.18414 12.2749C9.67581 11.9499 10.3091 11.9499 10.7925 12.2749L11.5341 12.7749C11.6258 12.8333 11.7091 12.8083 11.7508 12.7833C11.7925 12.7583 11.8591 12.7083 11.8591 12.5999V8.94992H8.07581V8.95826Z" fill="black"/>
</svg>
