<svg width="20" height="20" viewBox="0 0 20 20" fill="none" xmlns="http://www.w3.org/2000/svg">
<path d="M12.7 18.5583H12.5916C8.89164 18.5583 7.1083 17.1 6.79997 13.8333C6.76664 13.4917 7.01664 13.1833 7.36664 13.15C7.69997 13.1166 8.01664 13.375 8.04997 13.7167C8.29164 16.3333 9.52497 17.3083 12.6 17.3083H12.7083C16.1 17.3083 17.3 16.1083 17.3 12.7167V7.28332C17.3 3.89165 16.1 2.69165 12.7083 2.69165H12.6C9.5083 2.69165 8.27497 3.68332 8.04997 6.34998C8.0083 6.69165 7.71664 6.94998 7.36664 6.91665C7.28451 6.91023 7.20445 6.88766 7.13106 6.85024C7.05767 6.81281 6.9924 6.76126 6.93897 6.69855C6.88555 6.63584 6.84504 6.5632 6.81975 6.48479C6.79447 6.40638 6.78492 6.32376 6.79164 6.24165C7.07497 2.92498 8.86664 1.44165 12.5916 1.44165H12.7C16.7916 1.44165 18.5416 3.19165 18.5416 7.28332V12.7167C18.5416 16.8083 16.7916 18.5583 12.7 18.5583Z" fill="black"/>
<path d="M12.5 10.625H3.01666C2.675 10.625 2.39166 10.3417 2.39166 10C2.39166 9.65833 2.675 9.375 3.01666 9.375H12.5C12.8417 9.375 13.125 9.65833 13.125 10C13.125 10.3417 12.8417 10.625 12.5 10.625Z" fill="black"/>
<path d="M4.87502 13.4167C4.71668 13.4167 4.55835 13.3584 4.43335 13.2334L1.64168 10.4417C1.52545 10.3241 1.46027 10.1654 1.46027 10C1.46027 9.83467 1.52545 9.67598 1.64168 9.55837L4.43335 6.7667C4.67502 6.52503 5.07502 6.52503 5.31668 6.7667C5.55835 7.00837 5.55835 7.40837 5.31668 7.65003L2.96668 10L5.31668 12.35C5.55835 12.5917 5.55835 12.9917 5.31668 13.2334C5.20002 13.3584 5.03335 13.4167 4.87502 13.4167Z" fill="black"/>
</svg>
