<svg width="20" height="20" viewBox="0 0 20 20" fill="none" xmlns="http://www.w3.org/2000/svg">
<path d="M10.1325 9.68342H10.0659C10.0162 9.67507 9.96551 9.67507 9.91585 9.68342C7.49919 9.60841 5.67419 7.70842 5.67419 5.36675C5.67419 2.98341 7.61585 1.04175 9.99919 1.04175C12.3825 1.04175 14.3242 2.98341 14.3242 5.36675C14.3159 7.70842 12.4825 9.60841 10.1575 9.68342H10.1325ZM9.99919 2.29175C9.18432 2.29395 8.40346 2.61863 7.82726 3.19482C7.25107 3.77102 6.92639 4.55188 6.92419 5.36675C6.92419 7.03341 8.22419 8.37508 9.88252 8.43341C9.92419 8.42508 10.0409 8.42508 10.1492 8.43341C11.7825 8.35842 13.0659 7.01675 13.0742 5.36675C13.072 4.55188 12.7473 3.77102 12.1711 3.19482C11.5949 2.61863 10.8141 2.29395 9.99919 2.29175ZM10.1434 18.7917C8.51002 18.7917 6.86835 18.3751 5.62669 17.5417C4.46835 16.7751 3.83502 15.7251 3.83502 14.5834C3.83502 13.4417 4.46835 12.3834 5.62669 11.6084C8.12669 9.95008 12.1767 9.95008 14.66 11.6084C15.81 12.3751 16.4517 13.4251 16.4517 14.5667C16.4517 15.7084 15.8184 16.7667 14.66 17.5417C13.41 18.3751 11.7767 18.7917 10.1434 18.7917ZM6.31835 12.6584C5.51835 13.1917 5.08502 13.8751 5.08502 14.5917C5.08502 15.3001 5.52669 15.9834 6.31835 16.5084C8.39335 17.9001 11.8934 17.9001 13.9684 16.5084C14.7684 15.9751 15.2017 15.2917 15.2017 14.5751C15.2017 13.8667 14.76 13.1834 13.9684 12.6584C11.8934 11.2751 8.39335 11.2751 6.31835 12.6584Z" fill="black"/>
</svg>
