<svg width="20" height="20" viewBox="0 0 20 20" fill="none" xmlns="http://www.w3.org/2000/svg">
<path d="M9.99998 8.56741C9.14998 8.56741 8.29998 8.41741 7.49165 8.12574C7.33587 8.06933 7.20887 7.95337 7.13856 7.80336C7.06824 7.65335 7.06036 7.48156 7.11665 7.32574C7.24165 7.00074 7.59998 6.83407 7.92498 6.95074C9.26665 7.43407 10.7416 7.43407 12.0833 6.95074C12.1611 6.9201 12.2442 6.90537 12.3277 6.90741C12.4112 6.90945 12.4935 6.92823 12.5697 6.96262C12.6458 6.99701 12.7143 7.04633 12.7711 7.10765C12.8279 7.16898 12.8717 7.24106 12.9002 7.31964C12.9286 7.39822 12.941 7.48171 12.9366 7.56515C12.9322 7.6486 12.9111 7.73032 12.8745 7.80548C12.838 7.88063 12.7868 7.9477 12.7239 8.0027C12.661 8.05771 12.5877 8.09955 12.5083 8.12574C11.7 8.41741 10.85 8.56741 9.99998 8.56741Z" fill="black"/>
<path d="M15.8917 18.9584C15.4667 18.9584 15 18.8334 14.55 18.5751L10.4833 16.3167C10.2417 16.1834 9.76666 16.1834 9.525 16.3167L5.45833 18.5751C4.63333 19.0334 3.79166 19.0834 3.15 18.7001C2.50833 18.3251 2.14166 17.5667 2.14166 16.6251V4.88341C2.14166 2.76675 3.86666 1.04175 5.98333 1.04175H14.025C16.1417 1.04175 17.8667 2.76675 17.8667 4.88341V16.6251C17.8667 17.5667 17.5 18.3251 16.8583 18.7001C16.5667 18.8751 16.2333 18.9584 15.8917 18.9584ZM10 14.9667C10.3917 14.9667 10.775 15.0501 11.0833 15.2251L15.15 17.4834C15.575 17.7251 15.9667 17.7751 16.2167 17.6251C16.4667 17.4751 16.6083 17.1167 16.6083 16.6251V4.88341C16.6083 3.45841 15.4417 2.29175 14.0167 2.29175H5.98333C5.29665 2.29395 4.63873 2.5677 4.15317 3.05326C3.66762 3.53881 3.39386 4.19674 3.39166 4.88341V16.6251C3.39166 17.1167 3.53333 17.4834 3.78333 17.6251C4.03333 17.7667 4.41666 17.7251 4.85 17.4834L8.91666 15.2251C9.225 15.0501 9.60833 14.9667 10 14.9667Z" fill="black"/>
<path d="M15.8917 18.9584C15.4667 18.9584 15 18.8334 14.55 18.5751L10.4833 16.3167C10.2417 16.1834 9.76666 16.1834 9.525 16.3167L5.45833 18.5751C4.63333 19.0334 3.79166 19.0834 3.15 18.7001C2.50833 18.3251 2.14166 17.5667 2.14166 16.6251V4.88341C2.14166 2.76675 3.86666 1.04175 5.98333 1.04175H14.025C16.1417 1.04175 17.8667 2.76675 17.8667 4.88341V16.6251C17.8667 17.5667 17.5 18.3251 16.8583 18.7001C16.5667 18.8751 16.2333 18.9584 15.8917 18.9584ZM10 14.9667C10.3917 14.9667 10.775 15.0501 11.0833 15.2251L15.15 17.4834C15.575 17.7251 15.9667 17.7751 16.2167 17.6251C16.4667 17.4751 16.6083 17.1167 16.6083 16.6251V4.88341C16.6083 3.45841 15.4417 2.29175 14.0167 2.29175H5.98333C5.29665 2.29395 4.63873 2.5677 4.15317 3.05326C3.66762 3.53881 3.39386 4.19674 3.39166 4.88341V16.6251C3.39166 17.1167 3.53333 17.4834 3.78333 17.6251C4.03333 17.7667 4.41666 17.7251 4.85 17.4834L8.91666 15.2251C9.225 15.0501 9.60833 14.9667 10 14.9667Z" fill="black"/>
</svg>
