<svg width="20" height="20" viewBox="0 0 20 20" fill="none" xmlns="http://www.w3.org/2000/svg">
<path d="M14.1667 17.2916H5.83335C2.15835 17.2916 1.04169 16.1749 1.04169 12.4999V12.0833C1.04169 11.7416 1.32502 11.4583 1.66669 11.4583C2.46669 11.4583 3.12502 10.7999 3.12502 9.99992C3.12502 9.19992 2.46669 8.54159 1.66669 8.54159C1.32502 8.54159 1.04169 8.25825 1.04169 7.91659V7.49992C1.04169 3.82492 2.15835 2.70825 5.83335 2.70825H14.1667C17.8417 2.70825 18.9584 3.82492 18.9584 7.49992V8.33325C18.9584 8.67492 18.675 8.95825 18.3334 8.95825C17.5334 8.95825 16.875 9.61659 16.875 10.4166C16.875 11.2166 17.5334 11.8749 18.3334 11.8749C18.675 11.8749 18.9584 12.1583 18.9584 12.4999C18.9584 16.1749 17.8417 17.2916 14.1667 17.2916ZM2.29169 12.6333C2.30835 15.4999 2.90002 16.0416 5.83335 16.0416H14.1667C16.95 16.0416 17.625 15.5499 17.7 13.0499C17.1087 12.9077 16.5825 12.5706 16.2061 12.0929C15.8297 11.6152 15.625 11.0248 15.625 10.4166C15.625 9.14159 16.5167 8.06659 17.7084 7.78325V7.49992C17.7084 4.52492 17.15 3.95825 14.1667 3.95825H5.83335C2.90002 3.95825 2.30835 4.49992 2.29169 7.36659C3.48335 7.64992 4.37502 8.72492 4.37502 9.99992C4.37502 11.2749 3.48335 12.3499 2.29169 12.6333Z" fill="black"/>
<path d="M8.33331 6.04159C7.99165 6.04159 7.70831 5.75825 7.70831 5.41659V3.33325C7.70831 2.99159 7.99165 2.70825 8.33331 2.70825C8.67498 2.70825 8.95831 2.99159 8.95831 3.33325V5.41659C8.95831 5.75825 8.67498 6.04159 8.33331 6.04159ZM8.33331 12.1499C7.99165 12.1499 7.70831 11.8666 7.70831 11.5249V8.46659C7.70831 8.12492 7.99165 7.84159 8.33331 7.84159C8.67498 7.84159 8.95831 8.12492 8.95831 8.46659V11.5249C8.95831 11.8749 8.67498 12.1499 8.33331 12.1499ZM8.33331 17.2916C7.99165 17.2916 7.70831 17.0083 7.70831 16.6666V14.5833C7.70831 14.2416 7.99165 13.9583 8.33331 13.9583C8.67498 13.9583 8.95831 14.2416 8.95831 14.5833V16.6666C8.95831 17.0083 8.67498 17.2916 8.33331 17.2916Z" fill="black"/>
</svg>
