<svg width="6" height="13" viewBox="0 0 6 13" fill="none" xmlns="http://www.w3.org/2000/svg">
<path d="M5.23334 0.720719C5.36001 0.720719 5.48668 0.767386 5.58668 0.867386C5.67966 0.961477 5.73181 1.08843 5.73181 1.22072C5.73181 1.35301 5.67966 1.47996 5.58668 1.57405L1.24001 5.92072C0.920011 6.24072 0.920011 6.76072 1.24001 7.08072L5.58668 11.4274C5.67966 11.5215 5.73181 11.6484 5.73181 11.7807C5.73181 11.913 5.67966 12.04 5.58668 12.1341C5.39334 12.3274 5.07334 12.3274 4.88001 12.1341L0.533343 7.78739C0.193344 7.44739 1.00278e-05 6.98739 9.98526e-06 6.50072C9.94271e-06 6.01405 0.186677 5.55405 0.533343 5.21405L4.88001 0.867386C4.98001 0.774053 5.10668 0.720719 5.23334 0.720719Z" fill="#070707"/>
</svg>
