<svg width="16" height="16" viewBox="0 0 16 16" fill="none" xmlns="http://www.w3.org/2000/svg">
<path d="M2.21999 5.94C2.21999 5.81333 2.26665 5.68666 2.36665 5.58666C2.46074 5.49368 2.5877 5.44153 2.71999 5.44153C2.85227 5.44153 2.97923 5.49368 3.07332 5.58666L7.41999 9.93333C7.73999 10.2533 8.25999 10.2533 8.57999 9.93333L12.9267 5.58666C13.0207 5.49368 13.1477 5.44153 13.28 5.44153C13.4123 5.44153 13.5392 5.49368 13.6333 5.58666C13.8267 5.78 13.8267 6.1 13.6333 6.29333L9.28665 10.64C8.94665 10.98 8.48665 11.1733 7.99999 11.1733C7.51332 11.1733 7.05332 10.9867 6.71332 10.64L2.36665 6.29333C2.27332 6.19333 2.21999 6.06666 2.21999 5.94Z" fill="#070707"/>
</svg>
