<svg width="48" height="48" viewBox="0 0 48 48" fill="none" xmlns="http://www.w3.org/2000/svg">
<path d="M18.3401 31.16C17.9601 31.16 17.5801 31.02 17.2801 30.72C17.0012 30.4377 16.8447 30.0568 16.8447 29.66C16.8447 29.2631 17.0012 28.8822 17.2801 28.6L28.6001 17.28C29.1801 16.7 30.1401 16.7 30.7201 17.28C31.3001 17.86 31.3001 18.82 30.7201 19.4L19.4001 30.72C19.1201 31.02 18.7201 31.16 18.3401 31.16Z" fill="#FEFEFE"/>
<path d="M29.6601 31.16C29.2801 31.16 28.9001 31.02 28.6001 30.72L17.2801 19.4C17.0012 19.1177 16.8447 18.7368 16.8447 18.34C16.8447 17.9431 17.0012 17.5622 17.2801 17.28C17.8601 16.7 18.8201 16.7 19.4001 17.28L30.7201 28.6C31.3001 29.18 31.3001 30.14 30.7201 30.72C30.4201 31.02 30.0401 31.16 29.6601 31.16Z" fill="#FEFEFE"/>
</svg>
