<svg width="120" height="120" viewBox="0 0 120 120" fill="none" xmlns="http://www.w3.org/2000/svg">
<path d="M100 28.75H70C67.95 28.75 66.25 27.05 66.25 25C66.25 22.95 67.95 21.25 70 21.25H100C102.05 21.25 103.75 22.95 103.75 25C103.75 27.05 102.05 28.75 100 28.75ZM85 43.75H70C67.95 43.75 66.25 42.05 66.25 40C66.25 37.95 67.95 36.25 70 36.25H85C87.05 36.25 88.75 37.95 88.75 40C88.75 42.05 87.05 43.75 85 43.75Z" fill="#52B5B4"/>
<path d="M57.5 108.75C29.25 108.75 6.25 85.75 6.25 57.5C6.25 29.25 29.25 6.25 57.5 6.25C59.55 6.25 61.25 7.95 61.25 10C61.25 12.05 59.55 13.75 57.5 13.75C33.35 13.75 13.75 33.4 13.75 57.5C13.75 81.6 33.35 101.25 57.5 101.25C81.65 101.25 101.25 81.6 101.25 57.5C101.25 55.45 102.95 53.75 105 53.75C107.05 53.75 108.75 55.45 108.75 57.5C108.75 85.75 85.75 108.75 57.5 108.75ZM110 113.755C109.05 113.755 108.1 113.405 107.35 112.655L97.35 102.655C96.6526 101.949 96.2615 100.997 96.2615 100.005C96.2615 99.0128 96.6526 98.0607 97.35 97.355C98.8 95.905 101.2 95.905 102.65 97.355L112.65 107.355C114.1 108.805 114.1 111.205 112.65 112.655C111.9 113.405 110.95 113.755 110 113.755Z" fill="#52B5B4"/>
</svg>
