<svg width="88" height="88" viewBox="0 0 88 88" fill="none" xmlns="http://www.w3.org/2000/svg">
<path d="M72.252 38.6701H64.111C54.2603 38.6701 48.8465 33.2563 48.8465 23.4056V15.2645C48.8465 5.41381 54.2603 0 64.111 0H72.252C82.1027 0 87.5166 5.41381 87.5166 15.2645V23.4056C87.5166 33.2563 82.1027 38.6701 72.252 38.6701ZM64.111 6.10581C57.6795 6.10581 54.9523 8.83307 54.9523 15.2645V23.4056C54.9523 29.837 57.6795 32.5643 64.111 32.5643H72.252C78.6835 32.5643 81.4108 29.837 81.4108 23.4056V15.2645C81.4108 8.83307 78.6835 6.10581 72.252 6.10581H64.111Z" fill="white"/>
<path d="M23.4056 87.5166H15.2645C5.41381 87.5166 0 82.1027 0 72.252V64.111C0 54.2603 5.41381 48.8464 15.2645 48.8464H23.4056C33.2563 48.8464 38.6701 54.2603 38.6701 64.111V72.252C38.6701 82.1027 33.2563 87.5166 23.4056 87.5166ZM15.2645 54.9523C8.83307 54.9523 6.10581 57.6795 6.10581 64.111V72.252C6.10581 78.6835 8.83307 81.4107 15.2645 81.4107H23.4056C29.837 81.4107 32.5643 78.6835 32.5643 72.252V64.111C32.5643 57.6795 29.837 54.9523 23.4056 54.9523H15.2645Z" fill="white"/>
<path d="M19.3351 38.6701C8.67025 38.6701 0 29.9999 0 19.3351C0 8.67025 8.67025 0 19.3351 0C29.9999 0 38.6701 8.67025 38.6701 19.3351C38.6701 29.9999 29.9999 38.6701 19.3351 38.6701ZM19.3351 6.10581C12.0488 6.10581 6.10581 12.0488 6.10581 19.3351C6.10581 26.6213 12.0488 32.5643 19.3351 32.5643C26.6213 32.5643 32.5643 26.6213 32.5643 19.3351C32.5643 12.0488 26.6213 6.10581 19.3351 6.10581Z" fill="white"/>
<path d="M68.1815 87.5166C57.5167 87.5166 48.8465 78.8463 48.8465 68.1815C48.8465 57.5167 57.5167 48.8464 68.1815 48.8464C78.8463 48.8464 87.5166 57.5167 87.5166 68.1815C87.5166 78.8463 78.8463 87.5166 68.1815 87.5166ZM68.1815 54.9523C60.8952 54.9523 54.9523 60.8952 54.9523 68.1815C54.9523 75.4678 60.8952 81.4107 68.1815 81.4107C75.4678 81.4107 81.4108 75.4678 81.4108 68.1815C81.4108 60.8952 75.4678 54.9523 68.1815 54.9523Z" fill="white"/>
</svg>
