<svg width="88" height="88" viewBox="0 0 88 88" fill="none" xmlns="http://www.w3.org/2000/svg">
<path d="M67.3267 87.4212H20.1899C9.03659 87.4212 0 78.3439 0 67.1906V37.0279C0 31.4918 3.41925 24.5312 7.81543 21.112L29.7556 4.01572C36.3499 -1.11314 46.8926 -1.35737 53.7311 3.44585L78.887 21.0713C83.7309 24.4498 87.5165 31.6954 87.5165 37.5978V67.2313C87.5165 78.3439 78.48 87.4212 67.3267 87.4212ZM33.5005 8.81896L11.5603 25.9152C8.67024 28.1947 6.10581 33.3643 6.10581 37.0279V67.1906C6.10581 74.9653 12.4151 81.3154 20.1899 81.3154H67.3267C75.1014 81.3154 81.4107 75.006 81.4107 67.2313V37.5978C81.4107 33.6899 78.6021 28.2761 75.3863 26.078L50.2304 8.45261C45.59 5.19618 37.9374 5.359 33.5005 8.81896Z" fill="white"/>
<path d="M43.7583 70.139C42.0894 70.139 40.7054 68.755 40.7054 67.0861V54.8745C40.7054 53.2056 42.0894 51.8216 43.7583 51.8216C45.4272 51.8216 46.8112 53.2056 46.8112 54.8745V67.0861C46.8112 68.755 45.4272 70.139 43.7583 70.139Z" fill="white"/>
</svg>
