<svg width="122" height="122" viewBox="0 0 122 122" fill="none" xmlns="http://www.w3.org/2000/svg">
<path d="M80.2305 121.493H79.4663C53.3649 121.493 40.7845 111.205 38.6093 88.1608C38.3742 85.7505 40.1378 83.5754 42.6069 83.3402C44.9583 83.1051 47.1922 84.9275 47.4274 87.3377C49.1322 105.797 57.8327 112.675 79.5251 112.675H80.2893C104.216 112.675 112.681 104.21 112.681 80.2833V41.9541C112.681 18.0278 104.216 9.56246 80.2893 9.56246H79.5251C57.7151 9.56246 49.0146 16.5581 47.4274 35.3699C47.1335 37.7802 45.0759 39.6026 42.6069 39.3675C40.1378 39.1911 38.3742 37.016 38.5506 34.6057C40.5493 11.2085 53.1885 0.744415 79.4663 0.744415H80.2305C109.095 0.744415 121.44 13.0897 121.44 41.9541V80.2833C121.44 109.148 109.095 121.493 80.2305 121.493Z" fill="#B55253"/>
<path d="M78.8114 65.5278H11.9121C9.50181 65.5278 7.50305 63.529 7.50305 61.1188C7.50305 58.7085 9.50181 56.7097 11.9121 56.7097H78.8114C81.2217 56.7097 83.2204 58.7085 83.2204 61.1188C83.2204 63.529 81.2217 65.5278 78.8114 65.5278Z" fill="#B55253"/>
<path d="M25.0234 85.222C23.9064 85.222 22.7895 84.8105 21.9077 83.9287L2.21403 64.235C0.509212 62.5302 0.509212 59.7085 2.21403 58.0036L21.9077 38.3099C23.6125 36.6051 26.4343 36.6051 28.1391 38.3099C29.8439 40.0148 29.8439 42.8365 28.1391 44.5413L11.5612 61.1193L28.1391 77.6973C29.8439 79.4021 29.8439 82.2239 28.1391 83.9287C27.3161 84.8105 26.1403 85.222 25.0234 85.222Z" fill="#B55253"/>
</svg>
