<svg width="67" height="76" viewBox="0 0 67 76" fill="none" xmlns="http://www.w3.org/2000/svg">
<path d="M33.2182 31.8113C29.625 31.8113 26.0316 31.1772 22.6145 29.944C21.2406 29.4508 20.536 27.936 21.0292 26.5621C21.5576 25.1882 23.0724 24.4837 24.4463 24.9769C30.1182 27.0201 36.3535 27.0201 42.0252 24.9769C43.3991 24.4837 44.9139 25.1882 45.4071 26.5621C45.9003 27.936 45.1958 29.4508 43.8219 29.944C40.4047 31.1772 36.8115 31.8113 33.2182 31.8113Z" fill="white"/>
<path d="M58.1262 75.7403C56.3296 75.7403 54.3568 75.2118 52.4545 74.1198L35.2632 64.573C34.2416 64.0093 32.2336 64.0093 31.212 64.573L14.0208 74.1198C10.5332 76.0573 6.97515 76.2687 4.26259 74.6482C1.55003 73.0629 0 69.8572 0 65.8764V16.2401C0 7.2922 7.2922 0 16.2401 0H50.2351C59.183 0 66.4753 7.2922 66.4753 16.2401V65.8764C66.4753 69.8572 64.9252 73.0629 62.2127 74.6482C60.9797 75.388 59.5706 75.7403 58.1262 75.7403ZM33.22 58.866C34.8757 58.866 36.4962 59.2183 37.7996 59.9581L54.9909 69.5049C56.7875 70.5265 58.4433 70.7379 59.5001 70.1038C60.5569 69.4697 61.1558 67.9549 61.1558 65.8764V16.2401C61.1558 10.2161 56.2239 5.2842 50.1999 5.2842H16.2401C10.2161 5.2842 5.2842 10.2161 5.2842 16.2401V65.8764C5.2842 67.9549 5.88308 69.5049 6.93992 70.1038C7.99676 70.7026 9.61725 70.5265 11.4491 69.5049L28.6404 59.9581C29.9438 59.2183 31.5643 58.866 33.22 58.866Z" fill="white"/>
<path d="M58.1262 75.7403C56.3296 75.7403 54.3568 75.2118 52.4545 74.1198L35.2632 64.573C34.2416 64.0093 32.2336 64.0093 31.212 64.573L14.0208 74.1198C10.5332 76.0573 6.97515 76.2687 4.26259 74.6482C1.55003 73.0629 0 69.8572 0 65.8764V16.2401C0 7.2922 7.2922 0 16.2401 0H50.2351C59.183 0 66.4753 7.2922 66.4753 16.2401V65.8764C66.4753 69.8572 64.9252 73.0629 62.2127 74.6482C60.9797 75.388 59.5706 75.7403 58.1262 75.7403ZM33.22 58.866C34.8757 58.866 36.4962 59.2183 37.7996 59.9581L54.9909 69.5049C56.7875 70.5265 58.4433 70.7379 59.5001 70.1038C60.5569 69.4697 61.1558 67.9549 61.1558 65.8764V16.2401C61.1558 10.2161 56.2239 5.2842 50.1999 5.2842H16.2401C10.2161 5.2842 5.2842 10.2161 5.2842 16.2401V65.8764C5.2842 67.9549 5.88308 69.5049 6.93992 70.1038C7.99676 70.7026 9.61725 70.5265 11.4491 69.5049L28.6404 59.9581C29.9438 59.2183 31.5643 58.866 33.22 58.866Z" fill="white"/>
</svg>
