<svg width="67" height="68" viewBox="0 0 67 68" fill="none" xmlns="http://www.w3.org/2000/svg">
<path d="M53.5633 52.1721H19.8886C16.7583 52.1721 13.7544 50.844 11.6359 48.5358C9.51742 46.2276 8.44239 43.1289 8.69534 39.9986L11.3198 8.50563C11.4146 7.52542 11.0668 6.57687 10.4028 5.84963C9.73875 5.12238 8.82182 4.74291 7.84162 4.74291H2.37146C1.07506 4.74291 0 3.66785 0 2.37146C0 1.07506 1.07506 0 2.37146 0H7.87327C10.1815 0 12.3632 0.980202 13.9125 2.65603C14.7662 3.60461 15.3987 4.7113 15.7465 5.94445H55.2391C58.4327 5.94445 61.3733 7.20923 63.5234 9.48583C65.6419 11.794 66.717 14.7979 66.464 17.9915L64.7566 41.706C64.4088 47.4924 59.3497 52.1721 53.5633 52.1721ZM15.9046 10.6557L13.4383 40.378C13.2802 42.2119 13.8809 43.951 15.1141 45.3106C16.3472 46.6703 18.0547 47.3975 19.8886 47.3975H53.5633C56.8517 47.3975 59.824 44.615 60.0769 41.3266L61.7844 17.6121C61.9108 15.7465 61.3101 13.9758 60.0769 12.6794C58.8438 11.3514 57.1363 10.6241 55.2708 10.6241H15.9046V10.6557Z" fill="white"/>
<path d="M47.4291 67.9818C43.951 67.9818 41.1053 65.136 41.1053 61.6579C41.1053 58.1797 43.951 55.334 47.4291 55.334C50.9073 55.334 53.753 58.1797 53.753 61.6579C53.753 65.136 50.9073 67.9818 47.4291 67.9818ZM47.4291 60.0769C46.5438 60.0769 45.8482 60.7725 45.8482 61.6579C45.8482 62.5432 46.5438 63.2389 47.4291 63.2389C48.3145 63.2389 49.0101 62.5432 49.0101 61.6579C49.0101 60.7725 48.3145 60.0769 47.4291 60.0769Z" fill="white"/>
<path d="M22.1336 67.9818C18.6555 67.9818 15.8097 65.136 15.8097 61.6579C15.8097 58.1797 18.6555 55.334 22.1336 55.334C25.6117 55.334 28.4575 58.1797 28.4575 61.6579C28.4575 65.136 25.6117 67.9818 22.1336 67.9818ZM22.1336 60.0769C21.2482 60.0769 20.5526 60.7725 20.5526 61.6579C20.5526 62.5432 21.2482 63.2389 22.1336 63.2389C23.0189 63.2389 23.7146 62.5432 23.7146 61.6579C23.7146 60.7725 23.0189 60.0769 22.1336 60.0769Z" fill="white"/>
<path d="M62.4484 23.7146H24.5051C23.2087 23.7146 22.1336 22.6395 22.1336 21.3431C22.1336 20.0467 23.2087 18.9717 24.5051 18.9717H62.4484C63.7448 18.9717 64.8198 20.0467 64.8198 21.3431C64.8198 22.6395 63.7448 23.7146 62.4484 23.7146Z" fill="white"/>
</svg>
