<svg width="72" height="62" viewBox="0 0 72 62" fill="none" xmlns="http://www.w3.org/2000/svg">
<path d="M38.0125 58.9934H16.9983C6.49127 58.9934 3 52.0109 3 44.9951V16.9983C3 6.49127 6.49127 3 16.9983 3H38.0125C48.5195 3 52.0108 6.49127 52.0108 16.9983V44.9951C52.0108 55.5021 48.4863 58.9934 38.0125 58.9934Z" stroke="white" stroke-width="4.98753" stroke-linecap="round" stroke-linejoin="round"/>
<path d="M61.2544 47.9537L52.0108 41.4699V20.489L61.2544 14.0052C65.7764 10.8464 69.5004 12.7749 69.5004 18.3277V43.6644C69.5004 49.2172 65.7764 51.1457 61.2544 47.9537Z" stroke="white" stroke-width="4.98753" stroke-linecap="round" stroke-linejoin="round"/>
<path d="M34.5877 27.6714C37.3422 27.6714 39.5752 25.4383 39.5752 22.6839C39.5752 19.9293 37.3422 17.6963 34.5877 17.6963C31.8333 17.6963 29.6002 19.9293 29.6002 22.6839C29.6002 25.4383 31.8333 27.6714 34.5877 27.6714Z" stroke="white" stroke-width="4.98753" stroke-linecap="round" stroke-linejoin="round"/>
</svg>
